M48
;Layer_Color=9474304
;FILE_FORMAT=2:4
INCH,LZ
;TYPE=PLATED
T1F00S00C0.0120
%
T01
X000884Y00468
X0031Y0034
X010884Y00468
X0131Y0034
X020884Y00468
X0231Y0034
X030884Y00468
X0331Y0034
X040884Y00468
X0431Y0034
X050884Y00468
X0531Y0034
X060884Y00468
X0631Y0034
X070884Y00468
X0731Y0034
X08405Y00665
X0849Y0067
X08575
X0866
X08925Y0066
Y0058
Y005
Y0042
Y0034
Y0026
Y0018
Y001
M30
