G04*
G04 #@! TF.GenerationSoftware,Altium Limited,Altium Designer,20.1.14 (287)*
G04*
G04 Layer_Physical_Order=1*
G04 Layer_Color=255*
%FSLAX24Y24*%
%MOIN*%
G70*
G04*
G04 #@! TF.SameCoordinates,23AC58D6-5B4B-4A95-99CB-50BEC43C13F9*
G04*
G04*
G04 #@! TF.FilePolarity,Positive*
G04*
G01*
G75*
%ADD13R,0.0315X0.0492*%
%ADD14R,0.0534X0.0415*%
%ADD15R,0.0415X0.0534*%
%ADD16R,0.1063X0.0492*%
%ADD20C,0.0100*%
%ADD21C,0.0400*%
%ADD22C,0.0600*%
%ADD23C,0.0500*%
D13*
X-1985Y-11000D02*
D03*
X-2615D02*
D03*
Y-10200D02*
D03*
X-1985D02*
D03*
X2615Y-11000D02*
D03*
X1985D02*
D03*
X-452D02*
D03*
X-1082D02*
D03*
X1082D02*
D03*
X452D02*
D03*
D14*
X-2000Y286D02*
D03*
Y-286D02*
D03*
X2000Y286D02*
D03*
Y-286D02*
D03*
D15*
X286Y-2130D02*
D03*
X-286D02*
D03*
X286Y2130D02*
D03*
X-286D02*
D03*
D16*
X0Y-925D02*
D03*
Y925D02*
D03*
D20*
X1804Y129D02*
X2000Y325D01*
X286Y-2130D02*
Y-1914D01*
X2000Y325D02*
Y1300D01*
Y286D02*
Y325D01*
X286Y-1914D02*
X828Y-1372D01*
Y-767D01*
X1116Y-480D01*
X286Y2130D02*
X1170D01*
X2000Y1300D01*
X-1587Y1913D02*
X-443D01*
X-3012Y488D02*
X-1587Y1913D01*
X100Y-3000D02*
Y-2575D01*
X2615Y-11000D02*
Y-10622D01*
X2900Y-10337D01*
Y-8600D01*
X452Y-11000D02*
X767Y-10685D01*
Y-9400D01*
X-1000Y-2575D02*
Y-2057D01*
X-716Y-1773D01*
X-716D01*
X-10Y-925D02*
X0D01*
X-206Y-1121D02*
X-10Y-925D01*
X-206Y-1263D02*
Y-1121D01*
X-716Y-1773D02*
X-206Y-1263D01*
X-3012Y-11488D02*
Y-9300D01*
Y-11488D02*
X-2700Y-11800D01*
X-2014Y-11118D02*
Y-10971D01*
X-1675Y-8492D02*
X-767Y-9400D01*
X-1675Y-2275D02*
X-767Y-1367D01*
X-1000Y-8241D02*
X-600Y-8641D01*
Y-8800D02*
Y-8641D01*
X-286Y-2189D02*
X100Y-2575D01*
X-1067Y-10515D02*
X-286Y-9734D01*
X-600Y-8800D02*
X-286Y-9114D01*
Y-9734D02*
Y-9114D01*
X1116Y-523D02*
Y-480D01*
X1500Y-1500D02*
Y-907D01*
X1116Y-523D02*
X1500Y-907D01*
Y-8600D02*
X2300Y-9400D01*
X2000Y-286D02*
X2900Y-1186D01*
X-1985Y-10205D02*
Y-10200D01*
Y-10289D02*
Y-10205D01*
X-1067Y-10515D02*
X-1059D01*
X-1675D02*
X-1067D01*
X-1985Y-10205D02*
X-1675Y-10515D01*
X-1059Y-10978D02*
Y-10515D01*
X-1082Y-11000D02*
X-1059Y-10978D01*
X-452Y-10911D02*
X100Y-10360D01*
X-286Y-2189D02*
Y-2130D01*
X-2615Y-11000D02*
Y-10911D01*
X-2100Y-10396D01*
X-2093D01*
X-1985Y-10289D01*
X-2615Y-10200D02*
Y-9721D01*
X-2300Y-9406D01*
Y-9400D01*
X-767Y-1367D02*
Y-567D01*
X0Y200D01*
Y925D01*
X-1100Y-1200D02*
Y800D01*
X-2300Y-2400D02*
X-1100Y-1200D01*
X-452Y-11000D02*
Y-10911D01*
X1985Y-11000D02*
Y-10618D01*
X767Y-9400D02*
X1985Y-10618D01*
X-767Y-11800D02*
X-713Y-11746D01*
Y-11350D01*
X-452Y-11089D01*
Y-11000D01*
X2300Y-11800D02*
X2354Y-11746D01*
Y-11350D01*
X2600Y-11104D01*
X767Y-11800D02*
X820Y-11746D01*
Y-11350D01*
X1082Y-11089D01*
Y-11000D01*
X-2300Y-11800D02*
X-2246Y-11746D01*
Y-11350D01*
X-2014Y-11118D01*
X-2700Y-11800D02*
X-2300D01*
X-286Y2071D02*
Y2130D01*
X-443Y1913D02*
X-286Y2071D01*
X-2000Y-286D02*
X-1994Y-292D01*
Y-1100D02*
Y-292D01*
X-2014Y-300D02*
X-2000Y-286D01*
X-2014Y-10971D02*
X-1985Y-11000D01*
X-2000Y286D02*
Y800D01*
X-1300Y1500D02*
X-266D01*
X-2000Y800D02*
X-1300Y1500D01*
X1116Y-480D02*
X1724Y129D01*
X-266Y1500D02*
X325Y2091D01*
X1724Y129D02*
X1804D01*
D21*
X-3012Y-9300D02*
Y488D01*
X100Y-10360D02*
Y-3000D01*
X2900Y-8600D02*
Y-1186D01*
X-1000Y-8241D02*
Y-2575D01*
X-1675Y-8492D02*
Y-2275D01*
X1500Y-8600D02*
Y-1500D01*
X-2300Y-9400D02*
Y-2400D01*
D22*
Y-11800D02*
D03*
X1116Y-480D02*
D03*
X-1100Y800D02*
D03*
X-2300Y-9400D02*
D03*
X2300Y-11800D02*
D03*
X767D02*
D03*
X-767D02*
D03*
X2300Y-9400D02*
D03*
X767D02*
D03*
X-767D02*
D03*
D23*
X-600Y-8700D02*
D03*
X-1994Y-1100D02*
D03*
M02*
