G04*
G04 #@! TF.GenerationSoftware,Altium Limited,Altium Designer,20.1.14 (287)*
G04*
G04 Layer_Color=32768*
%FSLAX24Y24*%
%MOIN*%
G70*
G04*
G04 #@! TF.SameCoordinates,609D34DF-AED5-4EF3-B2A1-272BAC173EAB*
G04*
G04*
G04 #@! TF.FilePolarity,Positive*
G04*
G01*
G75*
%ADD20C,0.0039*%
%ADD21C,0.0020*%
D20*
X31803Y4000D02*
X32197D01*
X32000Y3803D02*
Y4197D01*
X21803Y4000D02*
X22197D01*
X22000Y3803D02*
Y4197D01*
X11803Y4000D02*
X12197D01*
X12000Y3803D02*
Y4197D01*
X72303Y2000D02*
X72697D01*
X72500Y1803D02*
Y2197D01*
X62303Y2000D02*
X62697D01*
X62500Y1803D02*
Y2197D01*
X52303Y2000D02*
X52697D01*
X52500Y1803D02*
Y2197D01*
X1803Y4000D02*
X2197D01*
X2000Y3803D02*
Y4197D01*
X42303Y2000D02*
X42697D01*
X42500Y1803D02*
Y2197D01*
X32303Y2000D02*
X32697D01*
X32500Y1803D02*
Y2197D01*
X22303Y2000D02*
X22697D01*
X22500Y1803D02*
Y2197D01*
X41803Y4000D02*
X42197D01*
X42000Y3803D02*
Y4197D01*
X51803Y4000D02*
X52197D01*
X52000Y3803D02*
Y4197D01*
X61803Y4000D02*
X62197D01*
X62000Y3803D02*
Y4197D01*
X71803Y4000D02*
X72197D01*
X72000Y3803D02*
Y4197D01*
X12303Y2000D02*
X12697D01*
X12500Y1803D02*
Y2197D01*
X2303Y2000D02*
X2697D01*
X2500Y1803D02*
Y2197D01*
D21*
X32630Y2720D02*
Y5280D01*
X31370Y2720D02*
Y5280D01*
X32630D01*
X31370Y2720D02*
X32630D01*
X22630D02*
Y5280D01*
X21370Y2720D02*
Y5280D01*
X22630D01*
X21370Y2720D02*
X22630D01*
X12630D02*
Y5280D01*
X11370Y2720D02*
Y5280D01*
X12630D01*
X11370Y2720D02*
X12630D01*
X71988Y1685D02*
Y2315D01*
X73012Y1685D02*
Y2315D01*
X71988D02*
X73012D01*
X71988Y1685D02*
X73012D01*
X61988D02*
Y2315D01*
X63012Y1685D02*
Y2315D01*
X61988D02*
X63012D01*
X61988Y1685D02*
X63012D01*
X51988D02*
Y2315D01*
X53012Y1685D02*
Y2315D01*
X51988D02*
X53012D01*
X51988Y1685D02*
X53012D01*
X2630Y2720D02*
Y5280D01*
X1370Y2720D02*
Y5280D01*
X2630D01*
X1370Y2720D02*
X2630D01*
X41988Y1685D02*
Y2315D01*
X43012Y1685D02*
Y2315D01*
X41988D02*
X43012D01*
X41988Y1685D02*
X43012D01*
X31988D02*
Y2315D01*
X33012Y1685D02*
Y2315D01*
X31988D02*
X33012D01*
X31988Y1685D02*
X33012D01*
X21988D02*
Y2315D01*
X23012Y1685D02*
Y2315D01*
X21988D02*
X23012D01*
X21988Y1685D02*
X23012D01*
X42630Y2720D02*
Y5280D01*
X41370Y2720D02*
Y5280D01*
X42630D01*
X41370Y2720D02*
X42630D01*
X52630D02*
Y5280D01*
X51370Y2720D02*
Y5280D01*
X52630D01*
X51370Y2720D02*
X52630D01*
X62630D02*
Y5280D01*
X61370Y2720D02*
Y5280D01*
X62630D01*
X61370Y2720D02*
X62630D01*
X72630D02*
Y5280D01*
X71370Y2720D02*
Y5280D01*
X72630D01*
X71370Y2720D02*
X72630D01*
X11988Y1685D02*
Y2315D01*
X13012Y1685D02*
Y2315D01*
X11988D02*
X13012D01*
X11988Y1685D02*
X13012D01*
X1988D02*
Y2315D01*
X3012Y1685D02*
Y2315D01*
X1988D02*
X3012D01*
X1988Y1685D02*
X3012D01*
M02*
