G04*
G04 #@! TF.GenerationSoftware,Altium Limited,Altium Designer,20.1.14 (287)*
G04*
G04 Layer_Color=16711935*
%FSLAX24Y24*%
%MOIN*%
G70*
G04*
G04 #@! TF.SameCoordinates,609D34DF-AED5-4EF3-B2A1-272BAC173EAB*
G04*
G04*
G04 #@! TF.FilePolarity,Positive*
G04*
G01*
G75*
%ADD20C,0.0039*%
D20*
X32531Y2976D02*
Y5024D01*
X31469Y2976D02*
Y5024D01*
X32531D01*
X31469Y2976D02*
X32531D01*
X22531D02*
Y5024D01*
X21469Y2976D02*
Y5024D01*
X22531D01*
X21469Y2976D02*
X22531D01*
X12531D02*
Y5024D01*
X11468Y2976D02*
Y5024D01*
X12531D01*
X11468Y2976D02*
X12531D01*
X72087Y1734D02*
Y2266D01*
X72913Y1734D02*
Y2266D01*
X72087D02*
X72913D01*
X72087Y1734D02*
X72913D01*
X62087D02*
Y2266D01*
X62913Y1734D02*
Y2266D01*
X62087D02*
X62913D01*
X62087Y1734D02*
X62913D01*
X52087D02*
Y2266D01*
X52913Y1734D02*
Y2266D01*
X52087D02*
X52913D01*
X52087Y1734D02*
X52913D01*
X2531Y2976D02*
Y5024D01*
X1469Y2976D02*
Y5024D01*
X2531D01*
X1469Y2976D02*
X2531D01*
X42087Y1734D02*
Y2266D01*
X42913Y1734D02*
Y2266D01*
X42087D02*
X42913D01*
X42087Y1734D02*
X42913D01*
X32087D02*
Y2266D01*
X32913Y1734D02*
Y2266D01*
X32087D02*
X32913D01*
X32087Y1734D02*
X32913D01*
X22087D02*
Y2266D01*
X22913Y1734D02*
Y2266D01*
X22087D02*
X22913D01*
X22087Y1734D02*
X22913D01*
X42531Y2976D02*
Y5024D01*
X41469Y2976D02*
Y5024D01*
X42531D01*
X41469Y2976D02*
X42531D01*
X52531D02*
Y5024D01*
X51469Y2976D02*
Y5024D01*
X52531D01*
X51469Y2976D02*
X52531D01*
X62531D02*
Y5024D01*
X61469Y2976D02*
Y5024D01*
X62531D01*
X61469Y2976D02*
X62531D01*
X72531D02*
Y5024D01*
X71469Y2976D02*
Y5024D01*
X72531D01*
X71469Y2976D02*
X72531D01*
X12087Y1734D02*
Y2266D01*
X12913Y1734D02*
Y2266D01*
X12087D02*
X12913D01*
X12087Y1734D02*
X12913D01*
X2087D02*
Y2266D01*
X2913Y1734D02*
Y2266D01*
X2087D02*
X2913D01*
X2087Y1734D02*
X2913D01*
M02*
