G04*
G04 #@! TF.GenerationSoftware,Altium Limited,Altium Designer,20.1.14 (287)*
G04*
G04 Layer_Color=65535*
%FSLAX24Y24*%
%MOIN*%
G70*
G04*
G04 #@! TF.SameCoordinates,609D34DF-AED5-4EF3-B2A1-272BAC173EAB*
G04*
G04*
G04 #@! TF.FilePolarity,Positive*
G04*
G01*
G75*
G36*
X89000Y8000D02*
X89098D01*
X89292Y7962D01*
X89474Y7886D01*
X89637Y7777D01*
X89777Y7637D01*
X89886Y7474D01*
X89962Y7292D01*
X90000Y7098D01*
Y7000D01*
Y1000D01*
Y1000D01*
Y902D01*
X89962Y708D01*
X89886Y526D01*
X89777Y363D01*
X89637Y223D01*
X89474Y114D01*
X89292Y38D01*
X89098Y0D01*
X1000D01*
X902Y-0D01*
X708Y38D01*
X526Y114D01*
X363Y223D01*
X223Y363D01*
X114Y526D01*
X38Y708D01*
X0Y902D01*
Y1000D01*
Y7000D01*
Y7098D01*
X38Y7292D01*
X114Y7474D01*
X223Y7637D01*
X363Y7777D01*
X526Y7886D01*
X708Y7962D01*
X902Y8000D01*
X89000D01*
Y8000D01*
D02*
G37*
%LPC*%
G36*
X87000Y7000D02*
X83700D01*
Y6400D01*
X87000D01*
Y7000D01*
D02*
G37*
G36*
X74000Y6000D02*
X70500D01*
Y1500D01*
X74000D01*
Y6000D01*
D02*
G37*
G36*
X64000D02*
X60500D01*
Y1500D01*
X64000D01*
Y6000D01*
D02*
G37*
G36*
X54000D02*
X50500D01*
Y1500D01*
X54000D01*
Y6000D01*
D02*
G37*
G36*
X44000D02*
X40500D01*
Y1500D01*
X44000D01*
Y6000D01*
D02*
G37*
G36*
X34000D02*
X30500D01*
Y1500D01*
X34000D01*
Y6000D01*
D02*
G37*
G36*
X24000D02*
X20500D01*
Y1500D01*
X24000D01*
Y6000D01*
D02*
G37*
G36*
X14000D02*
X10500D01*
Y1500D01*
X14000D01*
Y6000D01*
D02*
G37*
G36*
X4000D02*
X500D01*
Y1500D01*
X4000D01*
Y6000D01*
D02*
G37*
G36*
X89700Y6950D02*
X88900D01*
Y500D01*
X89700D01*
Y6950D01*
D02*
G37*
%LPD*%
M02*
