G04*
G04 #@! TF.GenerationSoftware,Altium Limited,Altium Designer,20.1.14 (287)*
G04*
G04 Layer_Physical_Order=1*
G04 Layer_Color=255*
%FSLAX24Y24*%
%MOIN*%
G70*
G04*
G04 #@! TF.SameCoordinates,609D34DF-AED5-4EF3-B2A1-272BAC173EAB*
G04*
G04*
G04 #@! TF.FilePolarity,Positive*
G04*
G01*
G75*
%ADD10R,0.1063X0.0492*%
%ADD11R,0.0315X0.0492*%
%ADD15C,0.0100*%
%ADD16C,0.0300*%
%ADD17C,0.0240*%
D10*
X32000Y4925D02*
D03*
Y3075D02*
D03*
X22000Y4925D02*
D03*
Y3075D02*
D03*
X12000Y4925D02*
D03*
Y3075D02*
D03*
X2000Y4925D02*
D03*
Y3075D02*
D03*
X42000Y4925D02*
D03*
Y3075D02*
D03*
X52000Y4925D02*
D03*
Y3075D02*
D03*
X62000Y4925D02*
D03*
Y3075D02*
D03*
X72000Y4925D02*
D03*
Y3075D02*
D03*
D11*
X72185Y2000D02*
D03*
X72815D02*
D03*
X62185D02*
D03*
X62815D02*
D03*
X52185D02*
D03*
X52815D02*
D03*
X42185D02*
D03*
X42815D02*
D03*
X32185D02*
D03*
X32815D02*
D03*
X22185D02*
D03*
X22815D02*
D03*
X12185D02*
D03*
X12815D02*
D03*
X2185D02*
D03*
X2815D02*
D03*
D15*
X77213Y4350D02*
X77250D01*
X79820Y6920D01*
X72000Y3400D02*
X72450Y3850D01*
X72000Y3075D02*
Y3400D01*
X84050Y4400D02*
Y6650D01*
X83427Y3777D02*
X84050Y4400D01*
X2750Y1100D02*
X4450D01*
X6425Y3075D02*
X12000D01*
X4450Y1100D02*
X6425Y3075D01*
X60850Y5400D02*
X61325Y4925D01*
X59040Y5400D02*
X60850D01*
X61325Y4925D02*
X67535D01*
X11155Y5150D02*
X11380Y4925D01*
X2000D02*
X2196Y5121D01*
X2511D01*
X2540Y5150D02*
X11155D01*
X2511Y5121D02*
X2540Y5150D01*
X2187Y1663D02*
X2750Y1100D01*
X2187Y1663D02*
Y1998D01*
X2185Y2000D02*
X2187Y1998D01*
X2185Y2000D02*
Y2440D01*
X67535Y4925D02*
X67820Y5210D01*
X70955D01*
X71240Y4925D01*
X72000D01*
X12815Y2000D02*
Y3115D01*
X13100Y3400D01*
X22815Y2000D02*
Y3115D01*
X23100Y3400D01*
X32815Y2000D02*
Y3115D01*
X33100Y3400D01*
X42815Y2000D02*
Y3115D01*
X43100Y3400D01*
X85320Y5800D02*
X89250D01*
X84200Y6920D02*
X85320Y5800D01*
X79820Y6920D02*
X84200D01*
X62815Y2000D02*
Y3115D01*
X63100Y3400D01*
X72815Y2000D02*
Y3115D01*
X73100Y3400D01*
X52815Y2000D02*
Y3115D01*
X53100Y3400D01*
X85710Y2000D02*
X89200Y5490D01*
X89410D01*
X89520Y5600D01*
Y6330D01*
X89250Y6600D02*
X89520Y6330D01*
X84480Y7120D02*
X84900Y6700D01*
X79195Y7120D02*
X84480D01*
X77000Y4925D02*
X79195Y7120D01*
X2815Y2000D02*
Y3115D01*
X3100Y3400D01*
X22000Y4925D02*
X26915D01*
X27200Y5210D01*
X31085D01*
X31370Y4925D01*
X32000D01*
X12185Y1695D02*
Y2000D01*
Y1695D02*
X12700Y1180D01*
X14840D01*
X16735Y3075D01*
X22000D01*
Y3430D01*
X22300Y3730D01*
X30685D01*
X31340Y3075D01*
X32000D01*
X32185Y1600D02*
Y2000D01*
Y1600D02*
X32495Y1290D01*
X33560D01*
X35345Y3075D01*
X42000D01*
Y3400D01*
X42450Y3850D01*
X50935D01*
X51710Y3075D01*
X52000D01*
Y3400D01*
X52450Y3850D01*
X60935D01*
X61710Y3075D01*
X62000D01*
X62185Y1745D02*
Y2000D01*
Y1745D02*
X62500Y1430D01*
X68020D01*
X69665Y3075D01*
X72000D01*
X41320Y4925D02*
X42000D01*
X40985Y5260D02*
X41320Y4925D01*
X32625Y5260D02*
X40985D01*
X32290Y4925D02*
X32625Y5260D01*
X32000Y4925D02*
X32290D01*
X21380D02*
X22000D01*
X21075Y5230D02*
X21380Y4925D01*
X12595Y5230D02*
X21075D01*
X12290Y4925D02*
X12595Y5230D01*
X12000Y4925D02*
X12290D01*
X11380D02*
X12000D01*
X42000D02*
X50340D01*
X50815Y5400D01*
X51235D01*
X51710Y4925D01*
X52000D01*
X58565D01*
X59040Y5400D01*
X72000Y2625D02*
Y3075D01*
Y2625D02*
X72185Y2440D01*
Y2000D02*
Y2440D01*
X62000Y2625D02*
Y3075D01*
Y2625D02*
X62185Y2440D01*
Y2000D02*
Y2440D01*
X52000Y2625D02*
Y3075D01*
Y2625D02*
X52185Y2440D01*
Y2000D02*
Y2440D01*
X42000Y2625D02*
Y3075D01*
Y2625D02*
X42185Y2440D01*
Y2000D02*
Y2440D01*
X32000Y2625D02*
Y3075D01*
Y2625D02*
X32185Y2440D01*
Y2000D02*
Y2440D01*
X22000Y2625D02*
Y3075D01*
Y2625D02*
X22185Y2440D01*
Y2000D02*
Y2440D01*
X2000Y2625D02*
Y3075D01*
Y2625D02*
X2185Y2440D01*
X12000Y2625D02*
Y3075D01*
Y2625D02*
X12185Y2440D01*
Y2000D02*
Y2440D01*
D16*
X71700Y4350D02*
X77213D01*
X71450Y4100D02*
X71700Y4350D01*
X70700Y4100D02*
X71450D01*
X64080Y4380D02*
X70420D01*
X70700Y4100D01*
X72450Y3850D02*
X83500D01*
X63100Y3400D02*
X64080Y4380D01*
X72815Y2000D02*
X85710D01*
X72000Y4925D02*
X77000D01*
D17*
X89250Y6600D02*
D03*
Y5800D02*
D03*
Y5000D02*
D03*
X20884Y4680D02*
D03*
X23100Y3400D02*
D03*
X40884Y4680D02*
D03*
X43100Y3400D02*
D03*
X50884Y4680D02*
D03*
X53100Y3400D02*
D03*
X60884Y4680D02*
D03*
X63100Y3400D02*
D03*
X884Y4680D02*
D03*
X3100Y3400D02*
D03*
X70884Y4680D02*
D03*
X73100Y3400D02*
D03*
X10884Y4680D02*
D03*
X13100Y3400D02*
D03*
X30884Y4680D02*
D03*
X33100Y3400D02*
D03*
X84050Y6650D02*
D03*
X89250Y4200D02*
D03*
Y3400D02*
D03*
Y2600D02*
D03*
Y1800D02*
D03*
Y1000D02*
D03*
X85750Y6700D02*
D03*
X86600D02*
D03*
X84900D02*
D03*
M02*
