G04*
G04 #@! TF.GenerationSoftware,Altium Limited,Altium Designer,20.1.14 (287)*
G04*
G04 Layer_Color=255*
%FSLAX24Y24*%
%MOIN*%
G70*
G04*
G04 #@! TF.SameCoordinates,609D34DF-AED5-4EF3-B2A1-272BAC173EAB*
G04*
G04*
G04 #@! TF.FilePolarity,Positive*
G04*
G01*
G75*
%ADD10R,0.1063X0.0492*%
%ADD11R,0.0315X0.0492*%
%ADD17C,0.0240*%
D10*
X32000Y4925D02*
D03*
Y3075D02*
D03*
X22000Y4925D02*
D03*
Y3075D02*
D03*
X12000Y4925D02*
D03*
Y3075D02*
D03*
X2000Y4925D02*
D03*
Y3075D02*
D03*
X42000Y4925D02*
D03*
Y3075D02*
D03*
X52000Y4925D02*
D03*
Y3075D02*
D03*
X62000Y4925D02*
D03*
Y3075D02*
D03*
X72000Y4925D02*
D03*
Y3075D02*
D03*
D11*
X72185Y2000D02*
D03*
X72815D02*
D03*
X62185D02*
D03*
X62815D02*
D03*
X52185D02*
D03*
X52815D02*
D03*
X42185D02*
D03*
X42815D02*
D03*
X32185D02*
D03*
X32815D02*
D03*
X22185D02*
D03*
X22815D02*
D03*
X12185D02*
D03*
X12815D02*
D03*
X2185D02*
D03*
X2815D02*
D03*
D17*
X89250Y6600D02*
D03*
Y5800D02*
D03*
Y5000D02*
D03*
X20884Y4680D02*
D03*
X23100Y3400D02*
D03*
X40884Y4680D02*
D03*
X43100Y3400D02*
D03*
X50884Y4680D02*
D03*
X53100Y3400D02*
D03*
X60884Y4680D02*
D03*
X63100Y3400D02*
D03*
X884Y4680D02*
D03*
X3100Y3400D02*
D03*
X70884Y4680D02*
D03*
X73100Y3400D02*
D03*
X10884Y4680D02*
D03*
X13100Y3400D02*
D03*
X30884Y4680D02*
D03*
X33100Y3400D02*
D03*
X84050Y6650D02*
D03*
X89250Y4200D02*
D03*
Y3400D02*
D03*
Y2600D02*
D03*
Y1800D02*
D03*
Y1000D02*
D03*
X85750Y6700D02*
D03*
X86600D02*
D03*
X84900D02*
D03*
M02*
