G04*
G04 #@! TF.GenerationSoftware,Altium Limited,Altium Designer,20.1.14 (287)*
G04*
G04 Layer_Color=32896*
%FSLAX24Y24*%
%MOIN*%
G70*
G04*
G04 #@! TF.SameCoordinates,609D34DF-AED5-4EF3-B2A1-272BAC173EAB*
G04*
G04*
G04 #@! TF.FilePolarity,Positive*
G04*
G01*
G75*
%ADD15C,0.0100*%
%ADD18C,0.0079*%
%ADD19C,0.0080*%
D15*
X76000Y0D02*
Y8000D01*
X82149Y6969D02*
X82349D01*
X82249D01*
Y6469D01*
X82349Y6369D01*
X82449D01*
X82549Y6469D01*
X81849Y6769D02*
X81649D01*
X81549Y6669D01*
Y6369D01*
X81849D01*
X81949Y6469D01*
X81849Y6569D01*
X81549D01*
X80950Y6769D02*
X81250D01*
X81349Y6669D01*
Y6469D01*
X81250Y6369D01*
X80950D01*
X80750D02*
Y6969D01*
Y6569D02*
X80450Y6769D01*
X80750Y6569D02*
X80450Y6369D01*
X79550Y6969D02*
Y6369D01*
X79250D01*
X79150Y6469D01*
Y6869D01*
X79250Y6969D01*
X79550D01*
X78650Y6369D02*
X78850D01*
X78950Y6469D01*
Y6669D01*
X78850Y6769D01*
X78650D01*
X78550Y6669D01*
Y6569D01*
X78950D01*
X78250Y6369D02*
Y6869D01*
Y6669D01*
X78350D01*
X78151D01*
X78250D01*
Y6869D01*
X78151Y6969D01*
X77751Y6769D02*
X77551D01*
X77451Y6669D01*
Y6369D01*
X77751D01*
X77851Y6469D01*
X77751Y6569D01*
X77451D01*
X77251Y6769D02*
Y6469D01*
X77151Y6369D01*
X76851D01*
Y6270D01*
X76951Y6170D01*
X77051D01*
X76851Y6369D02*
Y6769D01*
X81250Y5710D02*
X81349Y5810D01*
X81549D01*
X81649Y5710D01*
Y5310D01*
X81549Y5210D01*
X81349D01*
X81250Y5310D01*
X80650Y5810D02*
X81050D01*
Y5210D01*
X80650D01*
X81050Y5510D02*
X80850D01*
X80450Y5810D02*
X80250D01*
X80350D01*
Y5210D01*
X80450D01*
X80250D01*
X79350Y5810D02*
Y5210D01*
X78950D01*
X78650Y5610D02*
X78450D01*
X78350Y5510D01*
Y5210D01*
X78650D01*
X78750Y5310D01*
X78650Y5410D01*
X78350D01*
X78151Y5810D02*
Y5210D01*
X77851D01*
X77751Y5310D01*
Y5410D01*
Y5510D01*
X77851Y5610D01*
X78151D01*
X80400Y4250D02*
X80800D01*
X80400Y4650D01*
Y4750D01*
X80500Y4850D01*
X80700D01*
X80800Y4750D01*
X80200D02*
X80100Y4850D01*
X79900D01*
X79800Y4750D01*
Y4350D01*
X79900Y4250D01*
X80100D01*
X80200Y4350D01*
Y4750D01*
X79200Y4250D02*
X79600D01*
X79200Y4650D01*
Y4750D01*
X79300Y4850D01*
X79500D01*
X79600Y4750D01*
X79000D02*
X78900Y4850D01*
X78700D01*
X78600Y4750D01*
Y4350D01*
X78700Y4250D01*
X78900D01*
X79000Y4350D01*
Y4750D01*
X83750Y5700D02*
X83650Y5800D01*
Y6000D01*
X83750Y6100D01*
X84150D01*
X84250Y6000D01*
Y5800D01*
X84150Y5700D01*
X83950D01*
Y5900D01*
X84250Y5500D02*
X83650D01*
X84250Y5100D01*
X83650D01*
Y4900D02*
X84250D01*
Y4600D01*
X84150Y4501D01*
X83750D01*
X83650Y4600D01*
Y4900D01*
X85200Y6100D02*
Y5900D01*
Y6000D01*
X84600D01*
X84700Y6100D01*
X84600Y5200D02*
Y5600D01*
X84900D01*
X84800Y5400D01*
Y5300D01*
X84900Y5200D01*
X85100D01*
X85200Y5300D01*
Y5500D01*
X85100Y5600D01*
X84600Y5000D02*
X85000D01*
X85200Y4800D01*
X85000Y4600D01*
X84600D01*
X85550Y5700D02*
Y6100D01*
X85850D01*
X85750Y5900D01*
Y5800D01*
X85850Y5700D01*
X86050D01*
X86150Y5800D01*
Y6000D01*
X86050Y6100D01*
X85550Y5500D02*
X85950D01*
X86150Y5300D01*
X85950Y5100D01*
X85550D01*
X86550Y5700D02*
X86450Y5800D01*
Y6000D01*
X86550Y6100D01*
X86950D01*
X87050Y6000D01*
Y5800D01*
X86950Y5700D01*
X86750D01*
Y5900D01*
X87050Y5500D02*
X86450D01*
X87050Y5100D01*
X86450D01*
Y4900D02*
X87050D01*
Y4600D01*
X86950Y4501D01*
X86550D01*
X86450Y4600D01*
Y4900D01*
X88800Y700D02*
X88600D01*
X88700D01*
Y1300D01*
X88800Y1200D01*
Y6850D02*
X88700Y6950D01*
X88500D01*
X88400Y6850D01*
Y6750D01*
X88500Y6650D01*
X88400Y6550D01*
Y6450D01*
X88500Y6350D01*
X88700D01*
X88800Y6450D01*
Y6550D01*
X88700Y6650D01*
X88800Y6750D01*
Y6850D01*
X88700Y6650D02*
X88500D01*
X88800Y6143D02*
X88400D01*
Y6043D01*
X88800Y5643D01*
Y5543D01*
X88400Y5336D02*
X88600Y5236D01*
X88800Y5036D01*
Y4836D01*
X88700Y4736D01*
X88500D01*
X88400Y4836D01*
Y4936D01*
X88500Y5036D01*
X88800D01*
X88400Y4528D02*
X88800D01*
Y4228D01*
X88600Y4328D01*
X88500D01*
X88400Y4228D01*
Y4029D01*
X88500Y3929D01*
X88700D01*
X88800Y4029D01*
X88500Y3121D02*
Y3721D01*
X88800Y3421D01*
X88400D01*
X88800Y2814D02*
X88700Y2914D01*
X88500D01*
X88400Y2814D01*
Y2714D01*
X88500Y2614D01*
X88600D01*
X88500D01*
X88400Y2514D01*
Y2414D01*
X88500Y2314D01*
X88700D01*
X88800Y2414D01*
X88400Y1507D02*
X88800D01*
X88400Y1907D01*
Y2007D01*
X88500Y2107D01*
X88700D01*
X88800Y2007D01*
D18*
X32492Y3469D02*
Y4532D01*
X31508Y3469D02*
Y4532D01*
X22492Y3469D02*
Y4532D01*
X21508Y3469D02*
Y4532D01*
X12492Y3469D02*
Y4532D01*
X11508Y3469D02*
Y4532D01*
X72461Y2207D02*
X72539D01*
X72461Y1793D02*
X72539D01*
X62461Y2207D02*
X62539D01*
X62461Y1793D02*
X62539D01*
X52461Y2207D02*
X52539D01*
X52461Y1793D02*
X52539D01*
X2492Y3469D02*
Y4532D01*
X1508Y3469D02*
Y4532D01*
X42461Y2207D02*
X42539D01*
X42461Y1793D02*
X42539D01*
X32461Y2207D02*
X32539D01*
X32461Y1793D02*
X32539D01*
X22461Y2207D02*
X22539D01*
X22461Y1793D02*
X22539D01*
X42492Y3469D02*
Y4532D01*
X41508Y3469D02*
Y4532D01*
X52492Y3469D02*
Y4532D01*
X51508Y3469D02*
Y4532D01*
X62492Y3469D02*
Y4532D01*
X61508Y3469D02*
Y4532D01*
X72492Y3469D02*
Y4532D01*
X71508Y3469D02*
Y4532D01*
X12461Y2207D02*
X12539D01*
X12461Y1793D02*
X12539D01*
X2461Y2207D02*
X2539D01*
X2461Y1793D02*
X2539D01*
D19*
X72440Y5570D02*
Y5970D01*
X72240D01*
X72173Y5903D01*
Y5770D01*
X72240Y5703D01*
X72440D01*
X72307D02*
X72173Y5570D01*
X72040D02*
X71907D01*
X71973D01*
Y5970D01*
X72040Y5903D01*
X71440Y5970D02*
X71574Y5903D01*
X71707Y5770D01*
Y5637D01*
X71640Y5570D01*
X71507D01*
X71440Y5637D01*
Y5703D01*
X71507Y5770D01*
X71707D01*
X62440Y5570D02*
Y5970D01*
X62240D01*
X62173Y5903D01*
Y5770D01*
X62240Y5703D01*
X62440D01*
X62307D02*
X62173Y5570D01*
X62040D02*
X61907D01*
X61973D01*
Y5970D01*
X62040Y5903D01*
X61440Y5970D02*
X61707D01*
Y5770D01*
X61574Y5837D01*
X61507D01*
X61440Y5770D01*
Y5637D01*
X61507Y5570D01*
X61640D01*
X61707Y5637D01*
X52440Y5570D02*
Y5970D01*
X52240D01*
X52173Y5903D01*
Y5770D01*
X52240Y5703D01*
X52440D01*
X52307D02*
X52173Y5570D01*
X52040D02*
X51907D01*
X51973D01*
Y5970D01*
X52040Y5903D01*
X51507Y5570D02*
Y5970D01*
X51707Y5770D01*
X51440D01*
X42440Y5570D02*
Y5970D01*
X42240D01*
X42173Y5903D01*
Y5770D01*
X42240Y5703D01*
X42440D01*
X42307D02*
X42173Y5570D01*
X42040D02*
X41907D01*
X41973D01*
Y5970D01*
X42040Y5903D01*
X41707D02*
X41640Y5970D01*
X41507D01*
X41440Y5903D01*
Y5837D01*
X41507Y5770D01*
X41574D01*
X41507D01*
X41440Y5703D01*
Y5637D01*
X41507Y5570D01*
X41640D01*
X41707Y5637D01*
X32440Y5570D02*
Y5970D01*
X32240D01*
X32173Y5903D01*
Y5770D01*
X32240Y5703D01*
X32440D01*
X32307D02*
X32173Y5570D01*
X32040D02*
X31907D01*
X31973D01*
Y5970D01*
X32040Y5903D01*
X31440Y5570D02*
X31707D01*
X31440Y5837D01*
Y5903D01*
X31507Y5970D01*
X31640D01*
X31707Y5903D01*
X22310Y5570D02*
Y5970D01*
X22110D01*
X22043Y5903D01*
Y5770D01*
X22110Y5703D01*
X22310D01*
X22177D02*
X22043Y5570D01*
X21910D02*
X21777D01*
X21843D01*
Y5970D01*
X21910Y5903D01*
X21577Y5570D02*
X21444D01*
X21510D01*
Y5970D01*
X21577Y5903D01*
X12440Y5570D02*
Y5970D01*
X12240D01*
X12173Y5903D01*
Y5770D01*
X12240Y5703D01*
X12440D01*
X12307D02*
X12173Y5570D01*
X12040D02*
X11907D01*
X11973D01*
Y5970D01*
X12040Y5903D01*
X11707D02*
X11640Y5970D01*
X11507D01*
X11440Y5903D01*
Y5637D01*
X11507Y5570D01*
X11640D01*
X11707Y5637D01*
Y5903D01*
X24033Y4150D02*
Y4550D01*
X23833D01*
X23767Y4483D01*
Y4350D01*
X23833Y4283D01*
X24033D01*
X23900D02*
X23767Y4150D01*
X23633Y4550D02*
X23367D01*
X23500D01*
Y4150D01*
X23233Y4483D02*
X23167Y4550D01*
X23033D01*
X22967Y4483D01*
Y4417D01*
X23033Y4350D01*
X23100D01*
X23033D01*
X22967Y4283D01*
Y4217D01*
X23033Y4150D01*
X23167D01*
X23233Y4217D01*
X44133Y4150D02*
Y4550D01*
X43933D01*
X43867Y4483D01*
Y4350D01*
X43933Y4283D01*
X44133D01*
X44000D02*
X43867Y4150D01*
X43733Y4550D02*
X43467D01*
X43600D01*
Y4150D01*
X43067Y4550D02*
X43333D01*
Y4350D01*
X43200Y4417D01*
X43133D01*
X43067Y4350D01*
Y4217D01*
X43133Y4150D01*
X43267D01*
X43333Y4217D01*
X54133Y4150D02*
Y4550D01*
X53933D01*
X53867Y4483D01*
Y4350D01*
X53933Y4283D01*
X54133D01*
X54000D02*
X53867Y4150D01*
X53733Y4550D02*
X53467D01*
X53600D01*
Y4150D01*
X53067Y4550D02*
X53200Y4483D01*
X53333Y4350D01*
Y4217D01*
X53267Y4150D01*
X53133D01*
X53067Y4217D01*
Y4283D01*
X53133Y4350D01*
X53333D01*
X64183Y4150D02*
Y4550D01*
X63983D01*
X63917Y4483D01*
Y4350D01*
X63983Y4283D01*
X64183D01*
X64050D02*
X63917Y4150D01*
X63783Y4550D02*
X63517D01*
X63650D01*
Y4150D01*
X63383Y4550D02*
X63117D01*
Y4483D01*
X63383Y4217D01*
Y4150D01*
X4067D02*
Y4550D01*
X3867D01*
X3800Y4483D01*
Y4350D01*
X3867Y4283D01*
X4067D01*
X3933D02*
X3800Y4150D01*
X3667Y4550D02*
X3400D01*
X3533D01*
Y4150D01*
X3267D02*
X3133D01*
X3200D01*
Y4550D01*
X3267Y4483D01*
X74133Y4150D02*
Y4550D01*
X73933D01*
X73867Y4483D01*
Y4350D01*
X73933Y4283D01*
X74133D01*
X74000D02*
X73867Y4150D01*
X73733Y4550D02*
X73467D01*
X73600D01*
Y4150D01*
X73333Y4483D02*
X73267Y4550D01*
X73133D01*
X73067Y4483D01*
Y4417D01*
X73133Y4350D01*
X73067Y4283D01*
Y4217D01*
X73133Y4150D01*
X73267D01*
X73333Y4217D01*
Y4283D01*
X73267Y4350D01*
X73333Y4417D01*
Y4483D01*
X73267Y4350D02*
X73133D01*
X13983Y4150D02*
Y4550D01*
X13783D01*
X13717Y4483D01*
Y4350D01*
X13783Y4283D01*
X13983D01*
X13850D02*
X13717Y4150D01*
X13583Y4550D02*
X13317D01*
X13450D01*
Y4150D01*
X12917D02*
X13183D01*
X12917Y4417D01*
Y4483D01*
X12983Y4550D01*
X13117D01*
X13183Y4483D01*
X34133Y4150D02*
Y4550D01*
X33933D01*
X33867Y4483D01*
Y4350D01*
X33933Y4283D01*
X34133D01*
X34000D02*
X33867Y4150D01*
X33733Y4550D02*
X33467D01*
X33600D01*
Y4150D01*
X33133D02*
Y4550D01*
X33333Y4350D01*
X33067D01*
X74183Y1700D02*
Y2100D01*
X73983D01*
X73917Y2033D01*
Y1900D01*
X73983Y1833D01*
X74183D01*
X74050D02*
X73917Y1700D01*
X73783Y2033D02*
X73717Y2100D01*
X73583D01*
X73517Y2033D01*
Y1967D01*
X73583Y1900D01*
X73517Y1833D01*
Y1767D01*
X73583Y1700D01*
X73717D01*
X73783Y1767D01*
Y1833D01*
X73717Y1900D01*
X73783Y1967D01*
Y2033D01*
X73717Y1900D02*
X73583D01*
X64183Y1700D02*
Y2100D01*
X63983D01*
X63917Y2033D01*
Y1900D01*
X63983Y1833D01*
X64183D01*
X64050D02*
X63917Y1700D01*
X63783Y2100D02*
X63517D01*
Y2033D01*
X63783Y1767D01*
Y1700D01*
X54233D02*
Y2100D01*
X54033D01*
X53967Y2033D01*
Y1900D01*
X54033Y1833D01*
X54233D01*
X54100D02*
X53967Y1700D01*
X53567Y2100D02*
X53700Y2033D01*
X53833Y1900D01*
Y1767D01*
X53767Y1700D01*
X53633D01*
X53567Y1767D01*
Y1833D01*
X53633Y1900D01*
X53833D01*
X2110Y5570D02*
Y5970D01*
X1910D01*
X1843Y5903D01*
Y5770D01*
X1910Y5703D01*
X2110D01*
X1977D02*
X1843Y5570D01*
X1710Y5637D02*
X1643Y5570D01*
X1510D01*
X1444Y5637D01*
Y5903D01*
X1510Y5970D01*
X1643D01*
X1710Y5903D01*
Y5837D01*
X1643Y5770D01*
X1444D01*
X44233Y1700D02*
Y2100D01*
X44033D01*
X43967Y2033D01*
Y1900D01*
X44033Y1833D01*
X44233D01*
X44100D02*
X43967Y1700D01*
X43567Y2100D02*
X43833D01*
Y1900D01*
X43700Y1967D01*
X43633D01*
X43567Y1900D01*
Y1767D01*
X43633Y1700D01*
X43767D01*
X43833Y1767D01*
X34283Y1700D02*
Y2100D01*
X34083D01*
X34017Y2033D01*
Y1900D01*
X34083Y1833D01*
X34283D01*
X34150D02*
X34017Y1700D01*
X33683D02*
Y2100D01*
X33883Y1900D01*
X33617D01*
X24255Y1700D02*
Y2100D01*
X24055D01*
X23988Y2033D01*
Y1900D01*
X24055Y1833D01*
X24255D01*
X24121D02*
X23988Y1700D01*
X23855Y2033D02*
X23788Y2100D01*
X23655D01*
X23588Y2033D01*
Y1967D01*
X23655Y1900D01*
X23722D01*
X23655D01*
X23588Y1833D01*
Y1767D01*
X23655Y1700D01*
X23788D01*
X23855Y1767D01*
X14183Y1700D02*
Y2100D01*
X13983D01*
X13917Y2033D01*
Y1900D01*
X13983Y1833D01*
X14183D01*
X14050D02*
X13917Y1700D01*
X13517D02*
X13783D01*
X13517Y1967D01*
Y2033D01*
X13583Y2100D01*
X13717D01*
X13783Y2033D01*
X3917Y1700D02*
Y2100D01*
X3717D01*
X3650Y2033D01*
Y1900D01*
X3717Y1833D01*
X3917D01*
X3783D02*
X3650Y1700D01*
X3517D02*
X3383D01*
X3450D01*
Y2100D01*
X3517Y2033D01*
M02*
