G04*
G04 #@! TF.GenerationSoftware,Altium Limited,Altium Designer,20.1.14 (287)*
G04*
G04 Layer_Physical_Order=1*
G04 Layer_Color=255*
%FSLAX24Y24*%
%MOIN*%
G70*
G04*
G04 #@! TF.SameCoordinates,17311497-FE2C-4E5C-BF44-28A0539949C5*
G04*
G04*
G04 #@! TF.FilePolarity,Positive*
G04*
G01*
G75*
%ADD10C,0.0100*%
%ADD14R,0.1500X0.0100*%
%ADD15R,0.0492X0.0315*%
%ADD16R,0.0315X0.0492*%
%ADD21C,0.0240*%
%ADD22C,0.0200*%
D10*
X10500Y-2200D02*
X16386D01*
X17050Y-2350D02*
X19400Y0D01*
X10500Y-2350D02*
X17050D01*
X3500D02*
X10500D01*
X3500Y-2200D02*
X10500D01*
X2217Y-2350D02*
X3500D01*
X2649Y-2200D02*
X3500D01*
X1691Y2000D02*
X2041Y2350D01*
X3500D01*
X10300Y2350D02*
X16731D01*
X16731Y2350D01*
X10300Y2200D02*
X12559D01*
X9391D02*
X10300D01*
X3500Y2350D02*
X4719D01*
X4719Y2350D01*
X12559Y2200D02*
X12859Y1900D01*
X18317D02*
X18617Y1600D01*
X12859Y1900D02*
X18317D01*
X16731Y2350D02*
X16881Y2200D01*
X2336Y-1887D02*
X2649Y-2200D01*
X2336Y-1887D02*
Y877D01*
X-2000Y-1079D02*
Y-365D01*
X19386Y800D02*
X19400D01*
X16386Y-2200D02*
X19386Y800D01*
X1364Y1849D02*
X2336Y877D01*
X4719Y2350D02*
X6402Y666D01*
X4719Y2350D02*
X10300D01*
X7668Y476D02*
X9391Y2200D01*
X18617Y1600D02*
X19400D01*
X1367Y-1500D02*
X2217Y-2350D01*
X-1600Y-1500D02*
X1367D01*
X18298Y-1598D02*
X18298D01*
X18300Y-1600D01*
X1200Y476D02*
X1411Y265D01*
X-315Y1991D02*
X1200Y476D01*
X871Y1849D02*
X1364D01*
X640Y2080D02*
X871Y1849D01*
X-315Y1991D02*
Y2080D01*
X1411Y265D02*
X2000D01*
X315Y2080D02*
X640D01*
X-2518Y43D02*
X-2296Y265D01*
X-2000D01*
X-2518Y-1024D02*
Y43D01*
Y-1024D02*
X-1371Y-2171D01*
X-324D01*
X-315Y-2180D01*
X-1950Y-1150D02*
X-1600Y-1500D01*
X-1950Y-1150D02*
Y-1079D01*
X-1989Y676D02*
X-585Y2080D01*
X-315D01*
X-1989Y276D02*
Y676D01*
X18300Y-1600D02*
X19400D01*
X315Y-2180D02*
X349Y-2214D01*
X1004D01*
X2000Y-900D02*
Y-365D01*
D14*
X10500Y-2200D02*
D03*
X3500D02*
D03*
X10500Y-2350D02*
D03*
X3500D02*
D03*
Y2350D02*
D03*
X10300Y2350D02*
D03*
Y2200D02*
D03*
D15*
X2000Y-365D02*
D03*
Y265D02*
D03*
X-2000Y-365D02*
D03*
Y265D02*
D03*
D16*
X315Y2080D02*
D03*
X-315D02*
D03*
X315Y-2180D02*
D03*
X-315D02*
D03*
D21*
X19400Y-1600D02*
D03*
X17449Y32D02*
D03*
X19400Y0D02*
D03*
X17449Y832D02*
D03*
Y1632D02*
D03*
X19400Y1600D02*
D03*
Y800D02*
D03*
Y-800D02*
D03*
D22*
X1691Y2000D02*
D03*
X16881Y2200D02*
D03*
X7668Y476D02*
D03*
X18298Y-1598D02*
D03*
X6402Y666D02*
D03*
X-1950Y-1079D02*
D03*
X1200Y476D02*
D03*
X871Y1849D02*
D03*
X2000Y-900D02*
D03*
X1004Y-2214D02*
D03*
M02*
