G04*
G04 #@! TF.GenerationSoftware,Altium Limited,Altium Designer,20.1.14 (287)*
G04*
G04 Layer_Physical_Order=2*
G04 Layer_Color=16711680*
%FSLAX24Y24*%
%MOIN*%
G70*
G04*
G04 #@! TF.SameCoordinates,17311497-FE2C-4E5C-BF44-28A0539949C5*
G04*
G04*
G04 #@! TF.FilePolarity,Positive*
G04*
G01*
G75*
%ADD10C,0.0100*%
%ADD14R,0.1500X0.0100*%
%ADD21C,0.0240*%
%ADD22C,0.0200*%
G04:AMPARAMS|DCode=23|XSize=57.1mil|YSize=49.2mil|CornerRadius=0mil|HoleSize=0mil|Usage=FLASHONLY|Rotation=134.000|XOffset=0mil|YOffset=0mil|HoleType=Round|Shape=Rectangle|*
%AMROTATEDRECTD23*
4,1,4,0.0375,-0.0034,0.0021,-0.0376,-0.0375,0.0034,-0.0021,0.0376,0.0375,-0.0034,0.0*
%
%ADD23ROTATEDRECTD23*%

%ADD24R,0.0571X0.0492*%
G04:AMPARAMS|DCode=25|XSize=49.2mil|YSize=31.5mil|CornerRadius=0mil|HoleSize=0mil|Usage=FLASHONLY|Rotation=134.000|XOffset=0mil|YOffset=0mil|HoleType=Round|Shape=Rectangle|*
%AMROTATEDRECTD25*
4,1,4,0.0284,-0.0068,0.0058,-0.0286,-0.0284,0.0068,-0.0058,0.0286,0.0284,-0.0068,0.0*
%
%ADD25ROTATEDRECTD25*%

%ADD26R,0.1063X0.0492*%
%ADD27R,0.0492X0.0571*%
D10*
X3500Y-2350D02*
X10500D01*
X3500Y-2200D02*
X10500D01*
X2250Y-2350D02*
X3500D01*
X2449Y-2200D02*
X3500D01*
X10500D02*
X11700D01*
X10300Y2350D02*
X15931D01*
X3500D02*
X10300D01*
X2425D02*
X3500D01*
X8327Y1269D02*
X9258Y2200D01*
X10300D01*
X12013D01*
X15931Y2350D02*
X17449Y832D01*
X975Y900D02*
X2425Y2350D01*
X3500Y2200D02*
X9258D01*
X2700D02*
X3500D01*
X6418Y282D02*
Y650D01*
X6766Y-226D02*
Y-66D01*
X6418Y282D02*
X6766Y-66D01*
X-1899Y213D02*
Y275D01*
X16881Y2200D02*
X17449Y1632D01*
X11700Y-2200D02*
X12300Y-1600D01*
X18296D01*
X10500Y-2350D02*
X17950Y-2350D01*
X19373Y-827D02*
X19400Y-800D01*
X19373Y-927D02*
Y-827D01*
X17950Y-2350D02*
X19373Y-927D01*
X1322Y822D02*
X2700Y2200D01*
X8327Y1269D02*
X8327D01*
X12013Y2200D02*
X12213Y2000D01*
X1322Y598D02*
Y822D01*
X12213Y2000D02*
X15481D01*
X17449Y32D01*
X6402Y666D02*
X6418Y650D01*
X7668Y476D02*
X7888Y696D01*
X7417Y226D02*
X7668Y476D01*
X7234Y226D02*
X7417D01*
X7888Y696D02*
X7942D01*
X1019Y-2229D02*
X2129D01*
X2250Y-2350D01*
X25Y900D02*
X975D01*
X2000Y-1751D02*
X2449Y-2200D01*
X989Y-2229D02*
X1004Y-2214D01*
X1019Y-2229D01*
X374D02*
X989D01*
X325Y-2180D02*
X374Y-2229D01*
X2000Y-1751D02*
Y-900D01*
X18296Y-1600D02*
X18298Y-1598D01*
X1293Y384D02*
X1322Y355D01*
X1200Y476D02*
X1322Y598D01*
X0Y-975D02*
X477D01*
X1322Y-130D02*
Y355D01*
X477Y-975D02*
X1322Y-130D01*
X1200Y476D02*
X1293Y384D01*
X-2000Y-1002D02*
X-1950Y-1052D01*
X-2000Y-1002D02*
Y-375D01*
X-1950Y-1079D02*
Y-1052D01*
X1091Y1400D02*
X1691Y2000D01*
X316Y1400D02*
X1091D01*
X1691Y2000D02*
X1691D01*
X640Y2080D02*
X871Y1849D01*
X325Y2080D02*
X640D01*
X-835Y1400D02*
X316D01*
X-325Y2041D02*
Y2080D01*
Y2041D02*
X316Y1400D01*
X-1921Y314D02*
X-835Y1400D01*
X-325Y-2180D02*
Y-2141D01*
X-950Y-1516D02*
Y-675D01*
Y-1516D02*
X-325Y-2141D01*
X28Y-1516D02*
X767D01*
X-325Y-2180D02*
X-259Y-2115D01*
Y-1803D01*
X28Y-1516D01*
X767D02*
X1400Y-882D01*
Y-286D02*
X1961Y275D01*
X1400Y-882D02*
Y-286D01*
X1961Y275D02*
X2000D01*
X-1703Y79D02*
X-950Y-675D01*
X-1899Y213D02*
X-1765Y79D01*
X-1703D01*
X2000Y-900D02*
Y-375D01*
X0Y875D02*
X25Y900D01*
D14*
X3500Y-2200D02*
D03*
Y-2350D02*
D03*
X10500D02*
D03*
Y-2200D02*
D03*
X3500Y2350D02*
D03*
X10300D02*
D03*
X3500Y2200D02*
D03*
X10300D02*
D03*
D21*
X19400Y-1600D02*
D03*
X17449Y32D02*
D03*
X19400Y0D02*
D03*
X17449Y832D02*
D03*
Y1632D02*
D03*
X19400Y1600D02*
D03*
Y800D02*
D03*
Y-800D02*
D03*
D22*
X1691Y2000D02*
D03*
X16881Y2200D02*
D03*
X7668Y476D02*
D03*
X18298Y-1598D02*
D03*
X6402Y666D02*
D03*
X-1950Y-1079D02*
D03*
X1200Y476D02*
D03*
X871Y1849D02*
D03*
X2000Y-900D02*
D03*
X1004Y-2214D02*
D03*
D23*
X7234Y226D02*
D03*
X6766Y-226D02*
D03*
D24*
X2000Y-375D02*
D03*
Y275D02*
D03*
X-2000Y-375D02*
D03*
Y275D02*
D03*
D25*
X7873Y831D02*
D03*
X8327Y1269D02*
D03*
D26*
X0Y875D02*
D03*
Y-975D02*
D03*
D27*
X325Y2080D02*
D03*
X-325D02*
D03*
X325Y-2180D02*
D03*
X-325D02*
D03*
M02*
