G04*
G04 #@! TF.GenerationSoftware,Altium Limited,Altium Designer,20.1.14 (287)*
G04*
G04 Layer_Color=32896*
%FSLAX24Y24*%
%MOIN*%
G70*
G04*
G04 #@! TF.SameCoordinates,B6722B68-9EB0-4988-A5EE-1314B268560D*
G04*
G04*
G04 #@! TF.FilePolarity,Positive*
G04*
G01*
G75*
%ADD11C,0.0050*%
%ADD12C,0.0040*%
D11*
X2300Y2250D02*
X2350Y2300D01*
X2450D01*
X2500Y2250D01*
Y2050D01*
X2450Y2000D01*
X2350D01*
X2300Y2050D01*
Y2150D01*
X2400D01*
X2200Y2000D02*
Y2300D01*
X2000Y2000D01*
Y2300D01*
X1900D02*
Y2000D01*
X1750D01*
X1700Y2050D01*
Y2250D01*
X1750Y2300D01*
X1900D01*
D12*
X1966Y-1793D02*
X2000Y-1760D01*
X2066D01*
X2100Y-1793D01*
Y-1927D01*
X2066Y-1960D01*
X2000D01*
X1966Y-1927D01*
X1767Y-1760D02*
X1900D01*
Y-1960D01*
X1767D01*
X1900Y-1860D02*
X1833D01*
X1700Y-1760D02*
X1633D01*
X1667D01*
Y-1960D01*
X1700D01*
X1633D01*
X1333Y-1760D02*
Y-1960D01*
X1200D01*
X1100Y-1827D02*
X1033D01*
X1000Y-1860D01*
Y-1960D01*
X1100D01*
X1133Y-1927D01*
X1100Y-1893D01*
X1000D01*
X934Y-1760D02*
Y-1960D01*
X834D01*
X800Y-1927D01*
Y-1893D01*
Y-1860D01*
X834Y-1827D01*
X934D01*
X-1733Y1943D02*
X-1667D01*
X-1700D01*
Y1776D01*
X-1667Y1743D01*
X-1633D01*
X-1600Y1776D01*
X-1833Y1876D02*
X-1900D01*
X-1933Y1843D01*
Y1743D01*
X-1833D01*
X-1800Y1776D01*
X-1833Y1809D01*
X-1933D01*
X-2133Y1876D02*
X-2033D01*
X-2000Y1843D01*
Y1776D01*
X-2033Y1743D01*
X-2133D01*
X-2200D02*
Y1943D01*
Y1809D02*
X-2300Y1876D01*
X-2200Y1809D02*
X-2300Y1743D01*
X-1500Y1607D02*
Y1407D01*
X-1600D01*
X-1633Y1440D01*
Y1573D01*
X-1600Y1607D01*
X-1500D01*
X-1800Y1407D02*
X-1733D01*
X-1700Y1440D01*
Y1507D01*
X-1733Y1540D01*
X-1800D01*
X-1833Y1507D01*
Y1473D01*
X-1700D01*
X-1933Y1407D02*
Y1573D01*
Y1507D01*
X-1900D01*
X-1967D01*
X-1933D01*
Y1573D01*
X-1967Y1607D01*
X-2100Y1540D02*
X-2167D01*
X-2200Y1507D01*
Y1407D01*
X-2100D01*
X-2067Y1440D01*
X-2100Y1473D01*
X-2200D01*
X-2267Y1540D02*
Y1440D01*
X-2300Y1407D01*
X-2400D01*
Y1373D01*
X-2367Y1340D01*
X-2333D01*
X-2400Y1407D02*
Y1540D01*
M02*
